<?xml version="1.0" encoding="UTF-8" standalone="no"?>
<!DOCTYPE svg PUBLIC "-//W3C//DTD SVG 1.1//EN"
 "http://www.w3.org/Graphics/SVG/1.1/DTD/svg11.dtd">
<!-- Generated by graphviz version 2.40.1 (20161225.0304)
 -->
<!-- Title: ImageBuffer.h Pages: 1 -->
<svg width="184pt" height="84pt"
 viewBox="0.00 0.00 183.50 84.00" xmlns="http://www.w3.org/2000/svg" xmlns:xlink="http://www.w3.org/1999/xlink">
<g id="graph0" class="graph" transform="scale(1 1) rotate(0) translate(4 80)">
<title>ImageBuffer.h</title>
<polygon fill="#ffffff" stroke="transparent" points="-4,4 -4,-80 179.5,-80 179.5,4 -4,4"/>
<!-- Node0 -->
<g id="node1" class="node">
<title>Node0</title>
<polygon fill="#bfbfbf" stroke="#000000" points="32.5,-56.5 32.5,-75.5 110.5,-75.5 110.5,-56.5 32.5,-56.5"/>
<text text-anchor="middle" x="71.5" y="-63.5" font-family="Helvetica,sans-Serif" font-size="10.00" fill="#000000">ImageBuffer.h</text>
</g>
<!-- Node1 -->
<g id="node2" class="node">
<title>Node1</title>
<g id="a_node2"><a xlink:href="Pixel_8h.html" target="_top" xlink:title="Define Pixel Object. ">
<polygon fill="#ffffff" stroke="#000000" points="0,-.5 0,-19.5 47,-19.5 47,-.5 0,-.5"/>
<text text-anchor="middle" x="23.5" y="-7.5" font-family="Helvetica,sans-Serif" font-size="10.00" fill="#000000">Pixel.h</text>
</a>
</g>
</g>
<!-- Node0&#45;&gt;Node1 -->
<g id="edge1" class="edge">
<title>Node0&#45;&gt;Node1</title>
<path fill="none" stroke="#191970" d="M63.139,-56.2455C56.325,-48.2958 46.5319,-36.8706 38.3848,-27.3656"/>
<polygon fill="#191970" stroke="#191970" points="40.9305,-24.9575 31.7651,-19.6427 35.6157,-29.513 40.9305,-24.9575"/>
</g>
<!-- Node2 -->
<g id="node3" class="node">
<title>Node2</title>
<g id="a_node3"><a xlink:href="ImageBufferMacros_8h.html" target="_top" xlink:title="ImageBufferMacros.h">
<polygon fill="#ffffff" stroke="#000000" points="65.5,-.5 65.5,-19.5 175.5,-19.5 175.5,-.5 65.5,-.5"/>
<text text-anchor="middle" x="120.5" y="-7.5" font-family="Helvetica,sans-Serif" font-size="10.00" fill="#000000">ImageBufferMacros.h</text>
</a>
</g>
</g>
<!-- Node0&#45;&gt;Node2 -->
<g id="edge2" class="edge">
<title>Node0&#45;&gt;Node2</title>
<path fill="none" stroke="#191970" d="M80.0351,-56.2455C86.9912,-48.2958 96.9883,-36.8706 105.3051,-27.3656"/>
<polygon fill="#191970" stroke="#191970" points="108.1116,-29.4732 112.0627,-19.6427 102.8436,-24.8637 108.1116,-29.4732"/>
</g>
</g>
</svg>
