<?xml version="1.0" encoding="UTF-8" standalone="no"?>
<!DOCTYPE svg PUBLIC "-//W3C//DTD SVG 1.1//EN"
 "http://www.w3.org/Graphics/SVG/1.1/DTD/svg11.dtd">
<!-- Generated by graphviz version 2.40.1 (20161225.0304)
 -->
<!-- Title: ImageBuffer.h Pages: 1 -->
<svg width="150pt" height="84pt"
 viewBox="0.00 0.00 150.00 84.00" xmlns="http://www.w3.org/2000/svg" xmlns:xlink="http://www.w3.org/1999/xlink">
<g id="graph0" class="graph" transform="scale(1 1) rotate(0) translate(4 80)">
<title>ImageBuffer.h</title>
<polygon fill="#ffffff" stroke="transparent" points="-4,4 -4,-80 146,-80 146,4 -4,4"/>
<!-- Node3 -->
<g id="node1" class="node">
<title>Node3</title>
<polygon fill="#bfbfbf" stroke="#000000" points="40,-56.5 40,-75.5 118,-75.5 118,-56.5 40,-56.5"/>
<text text-anchor="middle" x="79" y="-63.5" font-family="Helvetica,sans-Serif" font-size="10.00" fill="#000000">ImageBuffer.h</text>
</g>
<!-- Node4 -->
<g id="node2" class="node">
<title>Node4</title>
<g id="a_node2"><a xlink:href="ImageBuffer_8c.html" target="_top" xlink:title="ImageBuffer.c">
<polygon fill="#ffffff" stroke="#000000" points="0,-.5 0,-19.5 78,-19.5 78,-.5 0,-.5"/>
<text text-anchor="middle" x="39" y="-7.5" font-family="Helvetica,sans-Serif" font-size="10.00" fill="#000000">ImageBuffer.c</text>
</a>
</g>
</g>
<!-- Node3&#45;&gt;Node4 -->
<g id="edge1" class="edge">
<title>Node3&#45;&gt;Node4</title>
<path fill="none" stroke="#191970" d="M66.0864,-47.9209C59.3697,-38.5176 51.4283,-27.3997 45.8876,-19.6427"/>
<polygon fill="#191970" stroke="#191970" points="63.372,-50.1425 72.0325,-56.2455 69.0682,-46.0738 63.372,-50.1425"/>
</g>
<!-- Node5 -->
<g id="node3" class="node">
<title>Node5</title>
<g id="a_node3"><a xlink:href="main_8c.html" target="_top" xlink:title="main.c">
<polygon fill="#ffffff" stroke="#000000" points="96,-.5 96,-19.5 142,-19.5 142,-.5 96,-.5"/>
<text text-anchor="middle" x="119" y="-7.5" font-family="Helvetica,sans-Serif" font-size="10.00" fill="#000000">main.c</text>
</a>
</g>
</g>
<!-- Node3&#45;&gt;Node5 -->
<g id="edge2" class="edge">
<title>Node3&#45;&gt;Node5</title>
<path fill="none" stroke="#191970" d="M91.9136,-47.9209C98.6303,-38.5176 106.5717,-27.3997 112.1124,-19.6427"/>
<polygon fill="#191970" stroke="#191970" points="88.9318,-46.0738 85.9675,-56.2455 94.628,-50.1425 88.9318,-46.0738"/>
</g>
</g>
</svg>
