<?xml version="1.0" encoding="UTF-8" standalone="no"?>
<!DOCTYPE svg PUBLIC "-//W3C//DTD SVG 1.1//EN"
 "http://www.w3.org/Graphics/SVG/1.1/DTD/svg11.dtd">
<!-- Generated by graphviz version 2.40.1 (20161225.0304)
 -->
<!-- Title: main.c Pages: 1 -->
<svg width="214pt" height="140pt"
 viewBox="0.00 0.00 214.00 140.00" xmlns="http://www.w3.org/2000/svg" xmlns:xlink="http://www.w3.org/1999/xlink">
<g id="graph0" class="graph" transform="scale(1 1) rotate(0) translate(4 136)">
<title>main.c</title>
<polygon fill="#ffffff" stroke="transparent" points="-4,4 -4,-136 210,-136 210,4 -4,4"/>
<!-- Node0 -->
<g id="node1" class="node">
<title>Node0</title>
<polygon fill="#bfbfbf" stroke="#000000" points="40,-112.5 40,-131.5 86,-131.5 86,-112.5 40,-112.5"/>
<text text-anchor="middle" x="63" y="-119.5" font-family="Helvetica,sans-Serif" font-size="10.00" fill="#000000">main.c</text>
</g>
<!-- Node1 -->
<g id="node2" class="node">
<title>Node1</title>
<polygon fill="#ffffff" stroke="#bfbfbf" points="0,-56.5 0,-75.5 46,-75.5 46,-56.5 0,-56.5"/>
<text text-anchor="middle" x="23" y="-63.5" font-family="Helvetica,sans-Serif" font-size="10.00" fill="#000000">stdio.h</text>
</g>
<!-- Node0&#45;&gt;Node1 -->
<g id="edge1" class="edge">
<title>Node0&#45;&gt;Node1</title>
<path fill="none" stroke="#191970" d="M56.0325,-112.2455C50.4689,-104.4564 42.522,-93.3308 35.8171,-83.9439"/>
<polygon fill="#191970" stroke="#191970" points="38.5481,-81.7457 29.8876,-75.6427 32.852,-85.8144 38.5481,-81.7457"/>
</g>
<!-- Node2 -->
<g id="node3" class="node">
<title>Node2</title>
<g id="a_node3"><a xlink:href="ImageBuffer_8h.html" target="_top" xlink:title="ImageBuffer.h">
<polygon fill="#ffffff" stroke="#000000" points="64,-56.5 64,-75.5 142,-75.5 142,-56.5 64,-56.5"/>
<text text-anchor="middle" x="103" y="-63.5" font-family="Helvetica,sans-Serif" font-size="10.00" fill="#000000">ImageBuffer.h</text>
</a>
</g>
</g>
<!-- Node0&#45;&gt;Node2 -->
<g id="edge2" class="edge">
<title>Node0&#45;&gt;Node2</title>
<path fill="none" stroke="#191970" d="M69.9675,-112.2455C75.5311,-104.4564 83.478,-93.3308 90.1829,-83.9439"/>
<polygon fill="#191970" stroke="#191970" points="93.148,-85.8144 96.1124,-75.6427 87.4519,-81.7457 93.148,-85.8144"/>
</g>
<!-- Node3 -->
<g id="node4" class="node">
<title>Node3</title>
<g id="a_node4"><a xlink:href="Pixel_8h.html" target="_top" xlink:title="Define Pixel Object. ">
<polygon fill="#ffffff" stroke="#000000" points="30.5,-.5 30.5,-19.5 77.5,-19.5 77.5,-.5 30.5,-.5"/>
<text text-anchor="middle" x="54" y="-7.5" font-family="Helvetica,sans-Serif" font-size="10.00" fill="#000000">Pixel.h</text>
</a>
</g>
</g>
<!-- Node2&#45;&gt;Node3 -->
<g id="edge3" class="edge">
<title>Node2&#45;&gt;Node3</title>
<path fill="none" stroke="#191970" d="M94.4649,-56.2455C87.5088,-48.2958 77.5117,-36.8706 69.1949,-27.3656"/>
<polygon fill="#191970" stroke="#191970" points="71.6564,-24.8637 62.4373,-19.6427 66.3884,-29.4732 71.6564,-24.8637"/>
</g>
<!-- Node4 -->
<g id="node5" class="node">
<title>Node4</title>
<g id="a_node5"><a xlink:href="ImageBufferMacros_8h.html" target="_top" xlink:title="ImageBufferMacros.h">
<polygon fill="#ffffff" stroke="#000000" points="96,-.5 96,-19.5 206,-19.5 206,-.5 96,-.5"/>
<text text-anchor="middle" x="151" y="-7.5" font-family="Helvetica,sans-Serif" font-size="10.00" fill="#000000">ImageBufferMacros.h</text>
</a>
</g>
</g>
<!-- Node2&#45;&gt;Node4 -->
<g id="edge4" class="edge">
<title>Node2&#45;&gt;Node4</title>
<path fill="none" stroke="#191970" d="M111.361,-56.2455C118.175,-48.2958 127.9681,-36.8706 136.1152,-27.3656"/>
<polygon fill="#191970" stroke="#191970" points="138.8843,-29.513 142.7349,-19.6427 133.5695,-24.9575 138.8843,-29.513"/>
</g>
</g>
</svg>
